<?xml version="1.0" encoding="UTF-8" standalone="no"?><!-- Generator: Gravit.io --><svg xmlns="http://www.w3.org/2000/svg" xmlns:xlink="http://www.w3.org/1999/xlink" style="isolation:isolate" viewBox="0 0 64 64" width="64pt" height="64pt"><defs><clipPath id="_clipPath_ySMm5xRqvPPAz8MgwcsFtmAxuQCMYbwG"><rect width="64" height="64"/></clipPath></defs><g clip-path="url(#_clipPath_ySMm5xRqvPPAz8MgwcsFtmAxuQCMYbwG)"><clipPath id="_clipPath_8vfSJ2ju7x8FL19XSFtOWsNEuxuVbmGt"><rect x="0" y="0" width="64" height="64" transform="matrix(1,0,0,1,0,0)" fill="rgb(255,255,255)"/></clipPath><g clip-path="url(#_clipPath_8vfSJ2ju7x8FL19XSFtOWsNEuxuVbmGt)"><g><path d=" M 15.573 0 L 48.382 0 L 48.354 0.048 L 57.152 11.236 L 45.014 32.073 C 48.05 35.462 49.899 39.94 49.899 44.848 C 49.899 55.426 41.324 64 30.748 64 C 20.171 64 11.596 55.426 11.596 44.848 C 11.596 39.135 14.1 34.007 18.068 30.499 L 6.847 11.236 L 15.62 0.08 L 15.573 0 L 15.573 0 L 15.573 0 Z  M 34.972 26.165 L 47.972 0.673 L 42.309 9.96 L 21.619 9.96 L 16.264 1.139 L 28.838 25.791 C 29.467 25.73 30.103 25.697 30.748 25.697 C 32.2 25.697 33.612 25.86 34.972 26.165 L 34.972 26.165 L 34.972 26.165 Z  M 30.748 29.729 C 39.097 29.729 45.866 36.497 45.866 44.847 C 45.866 53.199 39.097 59.968 30.748 59.968 C 22.397 59.968 15.628 53.199 15.628 44.847 C 15.628 36.497 22.397 29.729 30.748 29.729 Z " fill-rule="evenodd" fill="rgb(247,185,43)"/></g></g></g></svg>