<?xml version="1.0" encoding="UTF-8" standalone="no"?><!-- Generator: Gravit.io --><svg xmlns="http://www.w3.org/2000/svg" xmlns:xlink="http://www.w3.org/1999/xlink" style="isolation:isolate" viewBox="0 0 64 64" width="64pt" height="64pt"><defs><clipPath id="_clipPath_tDMpVeJif7wg1cdQIbiKriaxAj8jx0F6"><rect width="64" height="64"/></clipPath></defs><g clip-path="url(#_clipPath_tDMpVeJif7wg1cdQIbiKriaxAj8jx0F6)"><clipPath id="_clipPath_LGPZjivYOiWHMTbPOBUbN0SNmMO56Rep"><rect x="0" y="0" width="64" height="64" transform="matrix(1,0,0,1,0,0)" fill="rgb(255,255,255)"/></clipPath><g clip-path="url(#_clipPath_LGPZjivYOiWHMTbPOBUbN0SNmMO56Rep)"><g><path d=" M 14.065 0 L 57.151 0 C 58.098 0 58.873 0.776 58.873 1.723 L 58.873 49.809 C 58.797 51.152 57.062 51.183 55.188 51.102 L 13.431 51.102 C 10.838 51.102 8.718 53.224 8.718 55.815 C 8.718 58.408 10.839 60.528 13.431 60.528 L 55.188 60.528 L 55.188 55.514 L 58.873 55.514 L 58.873 61.888 C 58.873 63.051 57.923 64 56.761 64 L 13.609 64 C 8.944 64 5.126 60.183 5.126 55.517 L 5.126 8.94 C 5.126 4.023 9.148 0 14.065 0 Z  M 15.725 6.978 L 17.216 6.978 C 17.977 6.978 18.599 7.481 18.599 8.098 L 18.599 43.24 C 18.599 43.856 17.977 44.359 17.216 44.359 L 15.725 44.359 C 14.965 44.359 14.342 43.856 14.342 43.24 L 14.342 8.098 C 14.342 7.481 14.965 6.978 15.725 6.978 L 15.725 6.978 L 15.725 6.978 Z " fill-rule="evenodd" fill="rgb(251,51,44)"/></g></g></g></svg>