<?xml version="1.0" encoding="UTF-8" standalone="no"?><!-- Generator: Gravit.io --><svg xmlns="http://www.w3.org/2000/svg" xmlns:xlink="http://www.w3.org/1999/xlink" style="isolation:isolate" viewBox="0 0 64 64" width="64pt" height="64pt"><defs><clipPath id="_clipPath_3bS72l4E0ZJXNDu5xJv60ctqRPMmy1YQ"><rect width="64" height="64"/></clipPath></defs><g clip-path="url(#_clipPath_3bS72l4E0ZJXNDu5xJv60ctqRPMmy1YQ)"><path d=" M 64 32 C 64 36.308 60.506 39.801 56.199 39.801 C 51.891 39.801 48.399 36.308 48.399 32 C 48.399 27.692 51.891 24.199 56.199 24.199 C 60.506 24.199 64 27.693 64 32 Z  M 15.601 32 C 15.601 36.308 12.108 39.801 7.8 39.801 C 3.493 39.801 0 36.308 0 32 C 0 27.692 3.493 24.199 7.8 24.199 C 12.108 24.199 15.601 27.693 15.601 32 Z  M 39.8 32 C 39.8 36.308 36.306 39.801 31.999 39.801 C 27.692 39.801 24.199 36.308 24.199 32 C 24.199 27.692 27.692 24.199 31.999 24.199 C 36.306 24.199 39.8 27.693 39.8 32 Z " fill-rule="evenodd" fill="rgb(28,154,251)"/></g></svg>