<?xml version="1.0" encoding="UTF-8" standalone="no"?><!-- Generator: Gravit.io --><svg xmlns="http://www.w3.org/2000/svg" xmlns:xlink="http://www.w3.org/1999/xlink" style="isolation:isolate" viewBox="0 0 401.168 401.168" width="401.168pt" height="401.168pt"><defs><clipPath id="_clipPath_y9q1kQwdMJu0ec0PTR8lXNhpcLrf70H8"><rect width="401.168" height="401.168"/></clipPath></defs><g clip-path="url(#_clipPath_y9q1kQwdMJu0ec0PTR8lXNhpcLrf70H8)"><g><g><path d=" M 401.004 250.538 C 400.17 245.243 396.245 240.966 391.043 239.679 C 390.171 239.464 319.664 221.754 267.862 189.875 L 211.299 133.299 C 179.455 81.522 161.703 10.994 161.488 10.125 C 160.202 4.922 155.923 0.997 150.629 0.163 C 145.336 -0.671 140.057 1.748 137.233 6.303 L 120.155 33.845 C 110.473 25.116 95.91 20.973 84.011 24.116 L 83.038 24.375 C 40.87 37.292 14.092 64.07 1.175 106.237 L 0.917 107.211 C -2.044 120.354 2.309 135.111 12.007 144.81 C 12.736 145.539 13.501 146.243 14.279 146.902 L 14.573 147.143 C 46.648 172.774 77.882 199.883 107.832 228.056 C 80.994 242.932 57.664 250.328 39.836 249.535 C 36.867 249.402 34.157 251.218 33.148 254.014 C 32.139 256.81 33.064 259.937 35.434 261.733 L 55.567 276.993 L 32.723 298.909 C 30.762 300.791 30.112 303.66 31.07 306.202 C 31.418 307.126 31.952 307.939 32.622 308.609 C 33.799 309.787 35.394 310.515 37.123 310.591 C 57.299 311.488 79.496 307.158 103.463 297.702 C 94.006 321.669 89.677 343.865 90.574 364.041 C 90.651 365.77 91.38 367.366 92.557 368.543 C 93.227 369.213 94.042 369.747 94.965 370.095 C 97.507 371.053 100.377 370.405 102.258 368.444 L 124.175 345.598 L 139.433 365.734 C 141.229 368.101 144.355 369.029 147.151 368.017 C 149.946 367.008 151.761 364.297 151.629 361.329 C 150.837 343.501 158.233 320.17 173.11 293.33 C 201.298 323.294 228.408 354.528 254.024 386.593 L 254.267 386.893 C 254.924 387.667 255.626 388.429 256.353 389.159 C 266.051 398.857 280.81 403.212 293.954 400.253 L 294.932 399.994 C 337.102 387.071 363.879 360.294 376.793 318.129 C 376.793 318.129 383.828 296.912 367.323 281.014 L 394.865 263.938 C 399.419 261.109 401.838 255.832 401.004 250.538 Z  M 144.092 45.804 C 146.738 54.101 150 63.712 153.864 74.04 C 148.588 67.839 143.359 61.601 138.189 55.323 L 144.092 45.804 L 144.092 45.804 Z  M 131.16 213.438 C 99.204 183.107 65.77 153.955 31.387 126.471 C 31.205 126.312 31.024 126.143 30.848 125.967 C 27.713 122.832 25.578 117.596 26.828 113.47 C 37.226 80.027 56.828 60.424 90.274 50.025 C 94.057 48.763 99.494 49.804 103.274 54.584 C 105.37 57.206 107.478 59.822 109.593 62.434 L 113.64 67.398 C 138.047 97.279 163.685 126.386 190.238 154.361 L 131.16 213.438 L 131.16 213.438 Z  M 351.141 310.894 C 340.746 344.335 321.145 363.94 287.7 374.34 C 283.604 375.229 278.334 373.453 275.199 370.319 C 275.024 370.142 274.854 369.965 274.698 369.784 C 247.233 335.413 218.081 301.977 187.733 270.009 L 246.809 210.934 C 274.788 237.495 303.897 263.132 333.777 287.537 L 338.735 291.578 C 341.345 293.693 343.964 295.803 346.589 297.898 C 346.77 298.055 346.949 298.223 347.124 298.399 C 350.255 301.531 352.291 306.884 351.141 310.894 Z  M 345.843 262.979 C 339.567 257.809 333.326 252.582 327.123 247.302 C 337.453 251.166 347.066 254.428 355.364 257.075 L 345.843 262.979 L 345.843 262.979 Z " fill="rgb(28,154,251)"/></g></g></g></svg>