<?xml version="1.0" encoding="UTF-8" standalone="no"?><!-- Generator: Gravit.io --><svg xmlns="http://www.w3.org/2000/svg" xmlns:xlink="http://www.w3.org/1999/xlink" style="isolation:isolate" viewBox="0 0 64 64" width="64pt" height="64pt"><defs><clipPath id="_clipPath_KzDFq5F8Z8x7DmKO24aKu7wlMW1s9Cck"><rect width="64" height="64"/></clipPath></defs><g clip-path="url(#_clipPath_KzDFq5F8Z8x7DmKO24aKu7wlMW1s9Cck)"><path d=" M 0 54.676 L 7.667 54.676 L 7.667 3.376 C 7.667 2.927 8.035 2.56 8.484 2.56 L 34.453 2.56 C 34.903 2.56 35.271 2.927 35.271 3.376 L 35.271 22.613 L 58.25 22.613 C 58.7 22.613 59.068 22.981 59.068 23.43 L 59.068 54.676 L 64 54.676 L 64 61.441 L 0 61.441 L 0 54.676 Z  M 14.23 10.278 L 19.542 10.278 C 19.705 10.278 19.839 10.413 19.839 10.577 L 19.839 17.013 C 19.838 17.177 19.706 17.31 19.542 17.311 L 14.23 17.311 C 14.066 17.31 13.933 17.177 13.932 17.013 L 13.932 10.577 C 13.932 10.413 14.067 10.278 14.23 10.278 L 14.23 10.278 Z  M 23.233 42.298 L 28.543 42.298 C 28.707 42.298 28.84 42.432 28.841 42.596 L 28.841 49.032 C 28.84 49.196 28.707 49.329 28.543 49.329 L 23.233 49.329 C 23.068 49.329 22.936 49.196 22.935 49.032 L 22.935 42.596 C 22.935 42.431 23.068 42.298 23.233 42.298 L 23.233 42.298 Z  M 14.23 42.298 L 19.542 42.298 C 19.706 42.299 19.839 42.432 19.839 42.596 L 19.839 49.032 C 19.838 49.196 19.706 49.328 19.542 49.329 L 14.23 49.329 C 14.066 49.328 13.933 49.196 13.932 49.032 L 13.932 42.596 C 13.933 42.432 14.066 42.299 14.23 42.298 L 14.23 42.298 Z  M 23.233 31.624 L 28.543 31.624 C 28.707 31.625 28.84 31.758 28.841 31.922 L 28.841 38.357 C 28.84 38.521 28.707 38.654 28.543 38.654 L 23.233 38.654 C 23.068 38.654 22.935 38.521 22.935 38.357 L 22.935 31.922 C 22.935 31.758 23.068 31.625 23.233 31.624 L 23.233 31.624 Z  M 14.23 31.624 L 19.542 31.624 C 19.706 31.625 19.839 31.758 19.839 31.922 L 19.839 38.357 C 19.839 38.521 19.706 38.654 19.542 38.654 L 14.23 38.654 C 14.066 38.654 13.933 38.521 13.932 38.357 L 13.932 31.922 C 13.933 31.758 14.066 31.625 14.23 31.624 L 14.23 31.624 Z  M 23.233 20.951 L 28.543 20.951 C 28.707 20.951 28.84 21.084 28.841 21.248 L 28.841 27.684 C 28.84 27.849 28.707 27.982 28.543 27.983 L 23.233 27.983 C 23.068 27.982 22.935 27.849 22.935 27.684 L 22.935 21.248 C 22.936 21.084 23.068 20.951 23.233 20.951 L 23.233 20.951 Z  M 14.23 20.951 L 19.542 20.951 C 19.706 20.952 19.838 21.084 19.839 21.248 L 19.839 27.684 C 19.839 27.848 19.705 27.983 19.542 27.983 L 14.23 27.983 C 14.067 27.983 13.932 27.848 13.932 27.684 L 13.932 21.248 C 13.933 21.084 14.066 20.952 14.23 20.951 L 14.23 20.951 Z  M 23.233 10.277 L 28.543 10.277 C 28.707 10.278 28.84 10.411 28.841 10.576 L 28.841 17.012 C 28.84 17.176 28.707 17.309 28.543 17.309 L 23.233 17.309 C 23.068 17.309 22.935 17.176 22.935 17.012 L 22.935 10.576 C 22.935 10.411 23.068 10.278 23.233 10.277 L 23.233 10.277 Z  M 12.071 6.373 L 30.779 6.373 C 31.102 6.373 31.367 6.689 31.367 7.074 L 31.367 51.8 C 31.367 52.185 31.102 52.501 30.779 52.501 L 12.071 52.501 C 11.747 52.501 11.482 52.185 11.482 51.8 L 11.482 7.074 C 11.482 6.689 11.747 6.373 12.071 6.373 Z  M 37.821 30.389 L 43.131 30.389 C 43.295 30.389 43.428 30.522 43.428 30.687 L 43.428 37.121 C 43.428 37.285 43.295 37.419 43.131 37.419 L 37.821 37.419 C 37.656 37.419 37.522 37.286 37.522 37.121 L 37.522 30.687 C 37.522 30.522 37.656 30.389 37.82 30.389 L 37.821 30.389 Z  M 46.821 42.297 L 52.131 42.297 C 52.295 42.297 52.429 42.43 52.43 42.595 L 52.43 49.03 C 52.43 49.193 52.295 49.328 52.131 49.328 L 46.821 49.328 C 46.656 49.327 46.524 49.195 46.523 49.03 L 46.523 42.594 C 46.523 42.43 46.656 42.297 46.821 42.297 L 46.821 42.297 Z  M 37.821 42.297 L 43.131 42.297 C 43.295 42.297 43.428 42.43 43.428 42.595 L 43.428 49.03 C 43.428 49.195 43.295 49.327 43.131 49.328 L 37.821 49.328 C 37.656 49.328 37.522 49.193 37.522 49.03 L 37.522 42.594 C 37.522 42.43 37.656 42.297 37.821 42.297 L 37.821 42.297 Z  M 46.821 30.389 L 52.131 30.389 C 52.295 30.389 52.429 30.522 52.43 30.687 L 52.43 37.121 C 52.429 37.286 52.295 37.419 52.131 37.419 L 46.821 37.419 C 46.656 37.419 46.523 37.286 46.523 37.121 L 46.523 30.687 C 46.523 30.522 46.656 30.389 46.821 30.389 L 46.821 30.389 Z  M 35.867 26.426 L 54.576 26.426 C 54.9 26.426 55.164 26.742 55.164 27.128 L 55.164 51.8 C 55.164 52.185 54.9 52.501 54.576 52.501 L 35.867 52.501 C 35.543 52.501 35.278 52.185 35.278 51.8 L 35.278 27.128 C 35.278 26.742 35.542 26.426 35.867 26.426 Z " fill-rule="evenodd" fill="rgb(36,173,39)"/></g></svg>