<?xml version="1.0" encoding="UTF-8" standalone="no"?><!-- Generator: Gravit.io --><svg xmlns="http://www.w3.org/2000/svg" xmlns:xlink="http://www.w3.org/1999/xlink" style="isolation:isolate" viewBox="0 0 64 64" width="64pt" height="64pt"><defs><clipPath id="_clipPath_OK6LVwmvxZgbH9loo8sjjzcU0fUdsJ1X"><rect width="64" height="64"/></clipPath></defs><g clip-path="url(#_clipPath_OK6LVwmvxZgbH9loo8sjjzcU0fUdsJ1X)"><clipPath id="_clipPath_G7ui6oPQfu6kTjyTUpY27M0HAYiOLpWN"><rect x="0" y="0" width="64" height="64" transform="matrix(1,0,0,1,0,0)" fill="rgb(255,255,255)"/></clipPath><g clip-path="url(#_clipPath_G7ui6oPQfu6kTjyTUpY27M0HAYiOLpWN)"><g><clipPath id="_clipPath_YdqAYpj8pvtdWkvfAT4Z7B1pDbLyIL53"><rect x="0" y="0" width="64" height="64" transform="matrix(1,0,0,1,0,0)" fill="rgb(255,255,255)"/></clipPath><g clip-path="url(#_clipPath_YdqAYpj8pvtdWkvfAT4Z7B1pDbLyIL53)"><g><g><clipPath id="_clipPath_8MztjPoTz8Z5YEJv56zqSX256664jC3s"><rect x="0" y="0" width="64" height="64" transform="matrix(1,0,0,1,0,0)" fill="rgb(255,255,255)"/></clipPath><g clip-path="url(#_clipPath_8MztjPoTz8Z5YEJv56zqSX256664jC3s)"><g><g><g><path d=" M 31.764 0 L 64 16.883 L 61.477 18.275 L 61.477 57.413 C 62.162 58.014 62.62 59.115 62.62 60.375 C 62.62 62.278 61.575 63.82 60.285 63.82 C 58.994 63.82 57.947 62.278 57.947 60.375 C 57.947 59.115 58.407 58.014 59.093 57.413 L 59.093 19.587 L 54.976 21.854 L 54.976 57.413 C 55.66 58.014 56.121 59.115 56.121 60.375 C 56.121 62.278 55.073 63.82 53.783 63.82 C 52.494 63.82 51.448 62.278 51.448 60.375 C 51.448 59.115 51.906 58.014 52.592 57.413 L 52.592 23.167 L 31.764 34.64 L 0 17.407 L 31.764 0 L 31.764 0 L 31.764 0 Z  M 13.107 28.024 L 32.118 38.121 L 50.657 28.024 L 50.657 49.796 L 13.107 49.796 L 13.107 28.024 L 13.107 28.024 L 13.107 28.024 Z " fill-rule="evenodd" fill="rgb(134,36,173)"/></g></g></g></g></g></g></g></g></g></g></svg>