<?xml version="1.0" encoding="UTF-8" standalone="no"?><!-- Generator: Gravit.io --><svg xmlns="http://www.w3.org/2000/svg" xmlns:xlink="http://www.w3.org/1999/xlink" style="isolation:isolate" viewBox="0 0 4362 5192" width="4362pt" height="5192pt"><defs><clipPath id="_clipPath_zVIdktwbmOnKdmgGri77i8BxgQg9k4Wy"><rect width="4362" height="5192"/></clipPath></defs><g clip-path="url(#_clipPath_zVIdktwbmOnKdmgGri77i8BxgQg9k4Wy)"><path d=" M 518 906 C 1262 85 2121 -361 2765 369 C 2934 377 3085 433 3211 552 C 3476 801 3517 1267 3396 1637 L 3396 1960 C 3478 2014 3531 2115 3555 2230 C 3571 2304 3575 2386 3567 2464 C 3559 2545 3539 2622 3507 2686 C 3461 2777 3391 2841 3296 2855 C 3203 2954 3112 3060 3031 3162 C 2942 3274 2866 3380 2813 3467 C 2772 3534 2785 3578 2800 3628 C 2807 3653 2815 3679 2820 3707 C 2983 3742 3130 3770 3262 3795 C 4101 3952 4362 4001 4362 5093 C 4362 5149 4317 5194 4261 5194 L 101 5194 C 45 5194 0 5149 0 5093 C 0 4001 260 3952 1100 3795 C 1233 3770 1382 3742 1545 3707 C 1551 3685 1558 3665 1565 3645 C 1582 3597 1599 3549 1549 3468 C 1496 3381 1420 3275 1331 3163 C 1250 3061 1159 2955 1066 2856 C 971 2842 901 2778 855 2687 C 823 2624 803 2546 795 2465 C 788 2387 792 2305 807 2231 C 831 2116 883 2016 964 1962 L 855 1897 C 826 1574 911 1013 517 907 L 518 906 Z  M 3195 1551 C 3177 1418 3142 1306 3093 1213 C 3030 1134 2938 1067 2819 980 L 2806 970 C 2781 952 2756 934 2730 918 C 2332 1176 2139 1116 1818 1169 C 1527 1217 1291 1325 1167 1523 L 1167 2025 C 1167 2073 1134 2113 1089 2123 C 1049 2135 1019 2196 1003 2272 C 991 2327 988 2388 994 2446 C 999 2502 1012 2554 1033 2595 C 1052 2632 1076 2657 1104 2657 L 1110 2657 C 1139 2657 1166 2669 1184 2688 C 1291 2800 1396 2921 1488 3037 C 1581 3153 1662 3267 1720 3363 C 1819 3525 1786 3618 1754 3710 C 1745 3737 1735 3763 1735 3789 C 1735 3840 1697 3882 1649 3889 C 1455 3933 1286 3964 1137 3992 C 450 4121 219 4164 203 4992 L 4161 4992 C 4145 4164 3914 4121 3227 3992 C 3076 3964 2904 3932 2707 3887 C 2660 3877 2629 3835 2629 3789 C 2629 3750 2619 3716 2610 3683 C 2582 3589 2558 3505 2644 3363 C 2702 3267 2784 3153 2876 3037 C 2968 2921 3073 2800 3180 2689 C 3201 2666 3231 2656 3260 2658 L 3261 2658 C 3289 2657 3313 2633 3332 2596 C 3353 2555 3366 2503 3371 2447 C 3377 2389 3373 2328 3362 2273 C 3346 2196 3316 2134 3274 2123 C 3228 2111 3198 2070 3198 2025 L 3198 1552 L 3195 1551 Z " fill-rule="evenodd" fill="rgb(247,97,43)"/></g></svg>